<svg width="909" height="535" viewBox="0 0 909 535" fill="none" xmlns="http://www.w3.org/2000/svg">
<path d="M181.141 299.331C173.597 299.331 166.996 297.667 161.339 294.339C155.681 291.011 151.243 285.963 148.026 279.196C144.92 272.318 143.367 263.665 143.367 253.237C143.367 242.699 144.865 234.046 147.86 227.278C150.855 220.511 155.182 215.464 160.839 212.136C166.497 208.808 173.264 207.144 181.141 207.144C189.572 207.144 197.115 209.085 203.771 212.968C210.539 216.74 215.863 222.065 219.746 228.943C223.74 235.821 225.737 243.919 225.737 253.237C225.737 262.667 223.74 270.821 219.746 277.699C215.863 284.577 210.539 289.902 203.771 293.674C197.115 297.445 189.572 299.331 181.141 299.331ZM128.224 330.282V208.475H153.018V226.779L152.519 253.404L154.183 279.862V330.282H128.224ZM176.648 278.032C180.974 278.032 184.801 277.033 188.129 275.036C191.569 273.039 194.286 270.211 196.283 266.55C198.391 262.778 199.445 258.34 199.445 253.237C199.445 248.023 198.391 243.586 196.283 239.925C194.286 236.264 191.569 233.435 188.129 231.439C184.801 229.442 180.974 228.443 176.648 228.443C172.321 228.443 168.438 229.442 164.999 231.439C161.56 233.435 158.842 236.264 156.846 239.925C154.849 243.586 153.85 248.023 153.85 253.237C153.85 258.34 154.849 262.778 156.846 266.55C158.842 270.211 161.56 273.039 164.999 275.036C168.438 277.033 172.321 278.032 176.648 278.032ZM296.565 298V280.528L294.901 276.7V245.416C294.901 239.87 293.181 235.543 289.742 232.437C286.414 229.331 281.256 227.778 274.267 227.778C269.496 227.778 264.782 228.554 260.122 230.107C255.574 231.55 251.691 233.546 248.474 236.098L239.156 217.96C244.037 214.521 249.916 211.858 256.794 209.973C263.672 208.087 270.661 207.144 277.761 207.144C291.406 207.144 302.001 210.361 309.544 216.795C317.088 223.229 320.86 233.269 320.86 246.914V298H296.565ZM269.275 299.331C262.286 299.331 256.295 298.166 251.303 295.837C246.311 293.396 242.484 290.124 239.821 286.019C237.159 281.914 235.828 277.31 235.828 272.207C235.828 266.883 237.103 262.223 239.655 258.23C242.317 254.236 246.477 251.13 252.135 248.911C257.793 246.581 265.17 245.416 274.267 245.416H298.062V260.559H277.096C270.994 260.559 266.779 261.558 264.449 263.554C262.23 265.551 261.121 268.047 261.121 271.043C261.121 274.371 262.397 277.033 264.948 279.03C267.611 280.916 271.216 281.859 275.764 281.859C280.091 281.859 283.974 280.86 287.413 278.864C290.852 276.756 293.348 273.705 294.901 269.711L298.894 281.692C297.009 287.461 293.57 291.843 288.577 294.838C283.585 297.834 277.151 299.331 269.275 299.331ZM389.434 299.331C379.227 299.331 370.242 297.334 362.476 293.341C354.822 289.347 348.887 283.911 344.671 277.033C340.455 270.044 338.348 262.112 338.348 253.237C338.348 244.252 340.4 236.32 344.505 229.442C348.72 222.453 354.433 217.017 361.644 213.134C368.855 209.141 377.009 207.144 386.105 207.144C394.869 207.144 402.746 209.03 409.735 212.801C416.835 216.462 422.437 221.787 426.542 228.776C430.646 235.654 432.698 243.919 432.698 253.57C432.698 254.569 432.643 255.734 432.532 257.065C432.421 258.285 432.31 259.45 432.199 260.559H359.481V245.416H418.554L408.57 249.909C408.57 245.25 407.627 241.201 405.741 237.762C403.855 234.323 401.248 231.66 397.92 229.775C394.592 227.778 390.709 226.779 386.272 226.779C381.834 226.779 377.896 227.778 374.457 229.775C371.129 231.66 368.522 234.378 366.636 237.928C364.75 241.367 363.807 245.472 363.807 250.242V254.236C363.807 259.117 364.861 263.444 366.969 267.215C369.188 270.876 372.239 273.705 376.121 275.702C380.115 277.588 384.774 278.531 390.099 278.531C394.869 278.531 399.03 277.81 402.579 276.368C406.24 274.925 409.568 272.762 412.564 269.878L426.375 284.854C422.271 289.513 417.112 293.119 410.9 295.67C404.687 298.111 397.532 299.331 389.434 299.331Z" fill="url(#paint0_linear_756_1869)"/>
<path d="M160.903 330L166.985 316.486H169.456L175.556 330H172.931L167.699 317.818H168.703L163.49 330H160.903ZM163.703 326.873L164.378 324.903H171.676L172.351 326.873H163.703ZM177.043 330V319.691H179.34V322.529L179.07 321.699C179.379 321.004 179.862 320.476 180.518 320.116C181.187 319.755 182.017 319.575 183.008 319.575V321.873C182.905 321.847 182.809 321.834 182.719 321.834C182.629 321.821 182.539 321.815 182.448 321.815C181.535 321.815 180.808 322.085 180.267 322.625C179.726 323.153 179.456 323.945 179.456 325V330H177.043ZM189.691 330.135C188.61 330.135 187.645 329.91 186.795 329.459C185.959 328.996 185.302 328.366 184.826 327.568C184.35 326.77 184.112 325.862 184.112 324.846C184.112 323.816 184.35 322.909 184.826 322.124C185.302 321.326 185.959 320.701 186.795 320.251C187.645 319.8 188.61 319.575 189.691 319.575C190.695 319.575 191.576 319.781 192.336 320.193C193.108 320.592 193.693 321.184 194.092 321.969L192.239 323.05C191.93 322.561 191.551 322.201 191.1 321.969C190.663 321.737 190.186 321.622 189.672 321.622C189.08 321.622 188.545 321.75 188.069 322.008C187.593 322.265 187.22 322.638 186.95 323.127C186.679 323.604 186.544 324.176 186.544 324.846C186.544 325.515 186.679 326.094 186.95 326.583C187.22 327.059 187.593 327.426 188.069 327.683C188.545 327.941 189.08 328.069 189.672 328.069C190.186 328.069 190.663 327.954 191.1 327.722C191.551 327.49 191.93 327.13 192.239 326.641L194.092 327.722C193.693 328.494 193.108 329.093 192.336 329.517C191.576 329.929 190.695 330.135 189.691 330.135ZM201.934 319.575C202.757 319.575 203.491 319.736 204.134 320.058C204.791 320.38 205.306 320.875 205.679 321.544C206.052 322.201 206.239 323.05 206.239 324.093V330H203.826V324.402C203.826 323.488 203.607 322.806 203.169 322.355C202.744 321.905 202.146 321.679 201.374 321.679C200.808 321.679 200.306 321.795 199.868 322.027C199.43 322.259 199.089 322.606 198.845 323.069C198.613 323.52 198.497 324.093 198.497 324.788V330H196.084V315.676H198.497V322.471L197.976 321.622C198.336 320.965 198.858 320.463 199.54 320.116C200.235 319.755 201.033 319.575 201.934 319.575ZM210.072 330.135C209.635 330.135 209.261 329.987 208.952 329.691C208.644 329.382 208.489 328.996 208.489 328.533C208.489 328.044 208.644 327.658 208.952 327.375C209.261 327.078 209.635 326.93 210.072 326.93C210.51 326.93 210.883 327.078 211.192 327.375C211.501 327.658 211.655 328.044 211.655 328.533C211.655 328.996 211.501 329.382 211.192 329.691C210.883 329.987 210.51 330.135 210.072 330.135ZM221.742 333.745C220.983 332.574 220.397 331.223 219.985 329.691C219.586 328.147 219.387 326.486 219.387 324.71C219.387 322.934 219.586 321.274 219.985 319.73C220.397 318.172 220.983 316.821 221.742 315.676H224.04C223.254 317.091 222.675 318.539 222.302 320.019C221.942 321.486 221.761 323.05 221.761 324.71C221.761 326.371 221.942 327.941 222.302 329.421C222.675 330.888 223.254 332.329 224.04 333.745H221.742ZM232.605 330.193C231.549 330.193 230.578 330.019 229.69 329.672C228.802 329.324 228.029 328.842 227.373 328.224C226.717 327.593 226.208 326.86 225.848 326.023C225.488 325.174 225.307 324.247 225.307 323.243C225.307 322.239 225.488 321.319 225.848 320.483C226.208 319.633 226.717 318.9 227.373 318.282C228.029 317.651 228.802 317.162 229.69 316.815C230.578 316.467 231.543 316.293 232.585 316.293C233.641 316.293 234.606 316.467 235.481 316.815C236.369 317.162 237.141 317.651 237.798 318.282C238.454 318.9 238.963 319.633 239.323 320.483C239.683 321.319 239.864 322.239 239.864 323.243C239.864 324.247 239.683 325.174 239.323 326.023C238.963 326.873 238.454 327.606 237.798 328.224C237.141 328.842 236.369 329.324 235.481 329.672C234.606 330.019 233.647 330.193 232.605 330.193ZM232.585 327.992C233.268 327.992 233.898 327.876 234.477 327.645C235.057 327.413 235.558 327.085 235.983 326.66C236.408 326.223 236.736 325.721 236.968 325.154C237.212 324.575 237.335 323.938 237.335 323.243C237.335 322.548 237.212 321.918 236.968 321.351C236.736 320.772 236.408 320.27 235.983 319.846C235.558 319.408 235.057 319.073 234.477 318.842C233.898 318.61 233.268 318.494 232.585 318.494C231.903 318.494 231.273 318.61 230.694 318.842C230.127 319.073 229.625 319.408 229.188 319.846C228.763 320.27 228.428 320.772 228.184 321.351C227.952 321.918 227.836 322.548 227.836 323.243C227.836 323.925 227.952 324.556 228.184 325.135C228.428 325.714 228.763 326.223 229.188 326.66C229.612 327.085 230.114 327.413 230.694 327.645C231.273 327.876 231.903 327.992 232.585 327.992ZM242.524 330V316.486H248.084C249.28 316.486 250.304 316.679 251.153 317.066C252.015 317.452 252.678 318.005 253.142 318.726C253.605 319.447 253.836 320.302 253.836 321.293C253.836 322.284 253.605 323.14 253.142 323.861C252.678 324.582 252.015 325.135 251.153 325.521C250.304 325.907 249.28 326.1 248.084 326.1H243.914L245.033 324.923V330H242.524ZM245.033 325.193L243.914 323.977H247.968C249.075 323.977 249.905 323.745 250.458 323.282C251.024 322.806 251.308 322.143 251.308 321.293C251.308 320.431 251.024 319.768 250.458 319.305C249.905 318.842 249.075 318.61 247.968 318.61H243.914L245.033 317.374V325.193ZM262.786 330.193C261.756 330.193 260.798 330.026 259.91 329.691C259.034 329.344 258.269 328.861 257.612 328.243C256.969 327.613 256.467 326.873 256.107 326.023C255.746 325.174 255.566 324.247 255.566 323.243C255.566 322.239 255.746 321.313 256.107 320.463C256.467 319.614 256.975 318.88 257.632 318.262C258.288 317.632 259.054 317.149 259.929 316.815C260.804 316.467 261.763 316.293 262.805 316.293C263.912 316.293 264.923 316.486 265.836 316.873C266.75 317.246 267.522 317.806 268.153 318.552L266.531 320.077C266.042 319.549 265.495 319.157 264.89 318.9C264.285 318.629 263.629 318.494 262.921 318.494C262.213 318.494 261.563 318.61 260.971 318.842C260.392 319.073 259.884 319.401 259.446 319.826C259.022 320.251 258.687 320.753 258.442 321.332C258.211 321.911 258.095 322.548 258.095 323.243C258.095 323.938 258.211 324.575 258.442 325.154C258.687 325.734 259.022 326.236 259.446 326.66C259.884 327.085 260.392 327.413 260.971 327.645C261.563 327.876 262.213 327.992 262.921 327.992C263.629 327.992 264.285 327.864 264.89 327.606C265.495 327.336 266.042 326.93 266.531 326.39L268.153 327.934C267.522 328.668 266.75 329.228 265.836 329.614C264.923 330 263.906 330.193 262.786 330.193ZM271.465 333.745H269.168C269.966 332.329 270.545 330.888 270.905 329.421C271.278 327.941 271.465 326.371 271.465 324.71C271.465 323.05 271.278 321.486 270.905 320.019C270.545 318.539 269.966 317.091 269.168 315.676H271.465C272.237 316.821 272.823 318.172 273.222 319.73C273.621 321.274 273.82 322.934 273.82 324.71C273.82 326.486 273.621 328.147 273.222 329.691C272.823 331.223 272.237 332.574 271.465 333.745ZM282.604 330V316.486H288.164C289.361 316.486 290.384 316.679 291.234 317.066C292.096 317.452 292.759 318.005 293.222 318.726C293.686 319.447 293.917 320.302 293.917 321.293C293.917 322.284 293.686 323.14 293.222 323.861C292.759 324.582 292.096 325.135 291.234 325.521C290.384 325.907 289.361 326.1 288.164 326.1H283.994L285.114 324.923V330H282.604ZM285.114 325.193L283.994 323.977H288.048C289.155 323.977 289.985 323.745 290.539 323.282C291.105 322.806 291.388 322.143 291.388 321.293C291.388 320.431 291.105 319.768 290.539 319.305C289.985 318.842 289.155 318.61 288.048 318.61H283.994L285.114 317.374V325.193ZM299.027 330L294.606 319.691H297.116L300.919 328.784H299.684L303.622 319.691H305.939L301.518 330H299.027ZM311.61 330.135C310.477 330.135 309.602 329.846 308.984 329.266C308.367 328.674 308.058 327.806 308.058 326.66V317.413H310.471V326.602C310.471 327.091 310.593 327.471 310.838 327.741C311.095 328.012 311.449 328.147 311.9 328.147C312.44 328.147 312.89 328.005 313.251 327.722L313.927 329.44C313.643 329.672 313.296 329.846 312.884 329.961C312.472 330.077 312.048 330.135 311.61 330.135ZM306.359 321.699V319.768H313.232V321.699H306.359ZM321.479 330V316.486H323.988V327.876H331.054V330H321.479ZM336.59 330.135C335.457 330.135 334.582 329.846 333.964 329.266C333.346 328.674 333.038 327.806 333.038 326.66V317.413H335.451V326.602C335.451 327.091 335.573 327.471 335.817 327.741C336.075 328.012 336.429 328.147 336.879 328.147C337.42 328.147 337.87 328.005 338.231 327.722L338.906 329.44C338.623 329.672 338.276 329.846 337.864 329.961C337.452 330.077 337.027 330.135 336.59 330.135ZM331.339 321.699V319.768H338.211V321.699H331.339ZM344.915 330.135C343.924 330.135 343.03 329.916 342.232 329.479C341.447 329.028 340.829 328.411 340.378 327.625C339.928 326.84 339.703 325.914 339.703 324.846C339.703 323.777 339.928 322.851 340.378 322.066C340.829 321.281 341.447 320.669 342.232 320.232C343.03 319.794 343.924 319.575 344.915 319.575C345.777 319.575 346.55 319.768 347.232 320.154C347.914 320.528 348.454 321.1 348.853 321.873C349.252 322.645 349.452 323.636 349.452 324.846C349.452 326.042 349.259 327.033 348.873 327.819C348.486 328.591 347.952 329.17 347.27 329.556C346.588 329.942 345.803 330.135 344.915 330.135ZM345.205 328.069C345.784 328.069 346.299 327.941 346.749 327.683C347.212 327.426 347.579 327.053 347.849 326.564C348.133 326.075 348.274 325.502 348.274 324.846C348.274 324.176 348.133 323.604 347.849 323.127C347.579 322.638 347.212 322.265 346.749 322.008C346.299 321.75 345.784 321.622 345.205 321.622C344.625 321.622 344.104 321.75 343.641 322.008C343.19 322.265 342.824 322.638 342.54 323.127C342.27 323.604 342.135 324.176 342.135 324.846C342.135 325.502 342.27 326.075 342.54 326.564C342.824 327.053 343.19 327.426 343.641 327.683C344.104 327.941 344.625 328.069 345.205 328.069ZM348.332 330V327.568L348.429 324.826L348.235 322.085V315.676H350.629V330H348.332Z" fill="url(#paint1_linear_756_1869)"/>
<path d="M492 326.5C633.617 353.333 632.123 395.671 599.12 442.13C557.297 437.767 519.841 418.72 492 390.234V326.5ZM492 317.5C708.159 309.513 707.003 387.255 704.013 420.344C684.809 431.235 663.351 438.61 640.511 441.595L641 441.5C655 412.5 693 340 492 321.5V317.5ZM709.5 417.1C708.413 417.77 707.318 418.428 706.215 419.075L709.5 416.964V417.1ZM737.5 298V395.706C733.62 399.339 729.574 402.798 725.376 406.07V291L737.5 298ZM617.545 92C714.495 92.0001 793.089 170.593 793.089 267.543C793.089 312.98 775.825 354.385 747.5 385.558V290L719 275.5V215.5L686.5 196.5L651.5 213.5V149L609.5 122.5L577 138V182L536 200V253L502 268V314.29C498.698 314.214 495.365 314.12 492 314V144.852C523.872 112.242 568.344 92 617.545 92ZM480 376.623C471.14 365.466 463.608 353.207 457.645 340.084H467.651V195H457.646C463.609 181.878 471.141 169.62 480 158.464V376.623ZM709.5 220.5V374.889C702.475 363.24 694.809 353.826 686.5 346.219V209L709.5 220.5ZM642.5 154.5V322.09C633.197 319.416 623.365 317.661 613 316.517V134.5L642.5 154.5ZM576.5 268L548 281.5V264L576.5 251V268ZM576.5 239.5L548 252.5V235.5L576.5 223.5V239.5ZM577 211.5L548 224.5V207.5L577 194.5V211.5Z" fill="url(#paint2_linear_756_1869)"/>
<path d="M455.629 180.849C455.629 167.125 466.754 156 480.478 156V156V378.034V378.034C466.754 378.034 455.629 366.909 455.629 353.186V180.849Z" fill="#2F68E6"/>
<defs>
<linearGradient id="paint0_linear_756_1869" x1="438" y1="238.5" x2="116" y2="238.5" gradientUnits="userSpaceOnUse">
<stop stop-color="#BA1770"/>
<stop offset="0.331731" stop-color="#8404E7"/>
<stop offset="0.668269" stop-color="#4641FF"/>
<stop offset="1" stop-color="#168FCB"/>
</linearGradient>
<linearGradient id="paint1_linear_756_1869" x1="426" y1="323.5" x2="161" y2="323.5" gradientUnits="userSpaceOnUse">
<stop stop-color="#BA1770"/>
<stop offset="0.331731" stop-color="#8404E7"/>
<stop offset="0.668269" stop-color="#4641FF"/>
<stop offset="1" stop-color="#168FCB"/>
</linearGradient>
<linearGradient id="paint2_linear_756_1869" x1="793.087" y1="267.543" x2="442" y2="267.543" gradientUnits="userSpaceOnUse">
<stop stop-color="#BA1770"/>
<stop offset="0.331731" stop-color="#8404E7"/>
<stop offset="0.668269" stop-color="#4641FF"/>
<stop offset="1" stop-color="#168FCB"/>
</linearGradient>
</defs>
</svg>
